<svg xmlns="http://www.w3.org/2000/svg" viewBox="0 0 16 16"><title>attract</title><path d="M11.5,12h-7a.5.5,0,0,1-.5-.5v-7A.5.5,0,0,1,4.5,4h7a.5.5,0,0,1,.5.5v7A.5.5,0,0,1,11.5,12ZM5,11h6V5H5Z"/><path d="M.5,5.5A.5.5,0,0,1,0,5V1.5A1.5,1.5,0,0,1,1.5,0H5A.5.5,0,0,1,5,1H1.5a.5.5,0,0,0-.5.5V5A.5.5,0,0,1,.5,5.5Z"/><path d="M15.5,5.5A.5.5,0,0,1,15,5V1.5a.5.5,0,0,0-.5-.5H11a.5.5,0,0,1,0-1h3.5A1.5,1.5,0,0,1,16,1.5V5A.5.5,0,0,1,15.5,5.5Z"/><path d="M14.5,16H11a.5.5,0,0,1,0-1h3.5a.5.5,0,0,0,.5-.5V11a.5.5,0,0,1,1,0v3.5A1.5,1.5,0,0,1,14.5,16Z"/><path d="M5,16H1.5A1.5,1.5,0,0,1,0,14.5V11a.5.5,0,0,1,1,0v3.5a.5.5,0,0,0,.5.5H5a.5.5,0,0,1,0,1Z"/></svg>