<svg xmlns="http://www.w3.org/2000/svg" viewBox="0 0 15.5 9.21"><title>eye</title><path d="M15.45,4.3C15.32,4.13,12.34.06,7.77.06S.22,4.13.1,4.3a.5.5,0,0,0,0,.58c.12.17,3.11,4.24,7.67,4.24s7.55-4.07,7.67-4.24A.5.5,0,0,0,15.45,4.3ZM10,3.22A2.18,2.18,0,1,1,7.77,1.06,2.17,2.17,0,0,1,10,3.22ZM7.77,8.13c-3.38,0-5.88-2.64-6.63-3.53A10.88,10.88,0,0,1,5,1.64,3.16,3.16,0,0,0,4.86,2V2a3.13,3.13,0,0,0-.16.52l0,.14a3.13,3.13,0,0,0-.06.57,3.18,3.18,0,0,0,6.36,0,3.12,3.12,0,0,0-.06-.57l0-.14A3.13,3.13,0,0,0,10.7,2l0,0a3.15,3.15,0,0,0-.16-.32,11,11,0,0,1,3.88,3C13.65,5.49,11.16,8.13,7.77,8.13Z"/></svg>