<svg xmlns="http://www.w3.org/2000/svg" viewBox="0 0 16 16.81"><title>funnel</title><path d="M16,3c0-2-4-3-8-3S0,1,0,3A1.54,1.54,0,0,0,.41,4a.48.48,0,0,0-.24.11.5.5,0,0,0,0,.71L5.71,11v4.31a1.5,1.5,0,0,0,1.5,1.5h1a1.5,1.5,0,0,0,1.5-1.5V11l5.58-6.16a.5.5,0,0,0,.06-.57A1.69,1.69,0,0,0,16,3ZM8,1c4.27,0,7,1.18,7,2S12.27,5,8,5,1,3.82,1,3,3.73,1,8,1Zm.84,9.47a.5.5,0,0,0-.13.34v4.5a.5.5,0,0,1-.5.5h-1a.5.5,0,0,1-.5-.5v-4.5a.5.5,0,0,0-.13-.34L1.43,4.79A15.42,15.42,0,0,0,8,6a17.85,17.85,0,0,0,5.61-.81Z"/></svg>