<svg xmlns="http://www.w3.org/2000/svg" xmlns:xlink="http://www.w3.org/1999/xlink" viewBox="0 0 250 35.8"><defs><linearGradient id="a" x1="38" y1="27.05" x2="8.94" y2="27.05" gradientTransform="matrix(1, 0, 0, -1, 0, 38)" gradientUnits="userSpaceOnUse"><stop offset="0" stop-color="#2149fb"/><stop offset="1" stop-color="#1433bf"/></linearGradient><linearGradient id="b" x1="33" y1="18.86" x2="4.93" y2="18.86" gradientTransform="matrix(1, 0, 0, -1, 0, 38)" gradientUnits="userSpaceOnUse"><stop offset="0" stop-color="#2143a0"/><stop offset="1" stop-color="#1406bf"/></linearGradient><linearGradient id="c" x1="0.6" y1="24.15" x2="43" y2="24.15" xlink:href="#a"/><linearGradient id="d" x1="45.11" y1="21.25" x2="0" y2="21.25" gradientTransform="matrix(1, 0, 0, -1, 0, 38)" gradientUnits="userSpaceOnUse"><stop offset="0" stop-color="#2149fb"/><stop offset="1" stop-color="#284ffb"/></linearGradient></defs><title>logo-linkexchange</title><path d="M54,3.9c.19,0,.47-.1.74-.1h1.5c.28,0,.57.1.76.1V24.8h8.91c0,.2.09.5.09.8v.71a8.06,8.06,0,0,1-.09,1.49H54Z" style="fill:#112a82"/><path d="M70,12.8H67.5a1.11,1.11,0,0,0-.5-.4V11c.4-.2.5-.4.5-1.2H73V27.7c-.19,0-.47.1-.75.1h-1.5c-.28,0-.56-.1-.75-.1ZM69,6.6a2.72,2.72,0,0,1,0-.9V4.1a1.1,1.1,0,0,1,0-.8,1.06,1.06,0,0,0,.9-.5h1.8a1.06,1.06,0,0,0,.9.5,1.2,1.2,0,0,0,.4.8V5.7a1.8,1.8,0,0,0-.4.9,2.92,2.92,0,0,0-.9.2H70A8.66,8.66,0,0,1,69,6.6Z" style="fill:#112a82"/><path d="M77.3,9.8a2.42,2.42,0,0,0,.7,1h2.11c.2,0,.39.1.69.1.1.29.1.79.2,1.28a7.47,7.47,0,0,1,.1,1.38,4.36,4.36,0,0,1,.79-1.08,3.93,3.93,0,0,1,1.18-1,6.77,6.77,0,0,1,1.47-.69,5.72,5.72,0,0,1,1.87-.29,5.12,5.12,0,0,1,4.23,1.67A7.71,7.71,0,0,1,92,17.09V27.7c-.2,0-.49.1-.79.1H88.83c-.31,0-.62-.1-.83-.1V17.8a6.35,6.35,0,0,0-.73-3.5,2.86,2.86,0,0,0-2.39-1.1,6.09,6.09,0,0,0-1.87.3,5.13,5.13,0,0,0-1.56,1,5.19,5.19,0,0,0-1,1.8A6.75,6.75,0,0,0,80,19v8.7c-.19,0-.47.1-.75.1h-1.5c-.28,0-.56-.1-.75-.1V9.8Z" style="fill:#112a82"/><path d="M95.4,2.8c.2.2.8,1,.8,1h2a3.11,3.11,0,0,0,.84.1V27.7c-.19,0-.47.1-.75.1h-1.5c-.28,0-.56-.1-.75-.1V2.8ZM99.69,19,105,10.9c.29,0,.59-.1.88-.1h1.77c.29,0,.59.1.88.1l-5.31,7.86,6.29,8.94c-.29,0-.59.1-.88.1h-1.77c-.29,0-.59-.1-.88-.1Z" style="fill:#112a82"/><path d="M119,3.8h12.9a6.56,6.56,0,0,1,.1,1.5v.8a1.47,1.47,0,0,1-.1.7H122v7h7.9c0,.21.1.52.1.72v1.55c0,.31-.1.52-.1.72H122v8h10.89a5.8,5.8,0,0,1,.11,1.46v.84a1.43,1.43,0,0,1-.1.7H119Z" style="fill:#112a82"/><path d="M138,19l-3.93-8.06a9,9,0,0,1,1.67-.1h.88c.29,0,.59.1.88.1l3.44,8.16-4.23,8.65c-.29,0-.59.1-.79.1h-1.67c-.29,0-.59-.1-.88-.1Zm3.48.1L145,10.9c.29,0,.59-.1.88-.1h.88a9,9,0,0,1,1.67.1l-3.93,8L149,27.7c-.29,0-.59.1-.88.1h-.88a9,9,0,0,1-1.67-.1Z" style="fill:#112a82"/><path d="M162.4,24.5a7.26,7.26,0,0,1,.5,1.2,3.4,3.4,0,0,1,.2,1.4,12.46,12.46,0,0,1-4.5.8c-2.8,0-5-.8-6.4-2.4A9.63,9.63,0,0,1,150,19a12.86,12.86,0,0,1,.5-3.5,8.54,8.54,0,0,1,1.6-2.8,7.91,7.91,0,0,1,6.2-2.6,18.1,18.1,0,0,1,2.5.2,11.7,11.7,0,0,1,2,.5,6.15,6.15,0,0,1-.1,1.3,5,5,0,0,1-.4,1.3,10.64,10.64,0,0,0-3.7-.6,4.45,4.45,0,0,0-3.8,1.7,7.51,7.51,0,0,0-1.3,4.5,6.94,6.94,0,0,0,1.4,4.7,5.28,5.28,0,0,0,3.9,1.5,9.72,9.72,0,0,0,1.8-.1C161.3,24.9,161.8,24.7,162.4,24.5Z" style="fill:#112a82"/><path d="M165.9,2.8c.2.2.8,1,.8,1h1.49c.3,0,.61.1.81.1v9.72a8.41,8.41,0,0,0,.71-1,5.22,5.22,0,0,1,1.11-1,5.37,5.37,0,0,1,1.51-.68,6.08,6.08,0,0,1,1.92-.29,5.36,5.36,0,0,1,4.34,1.65A7.42,7.42,0,0,1,180,17.21V27.7c-.2,0-.5.1-.81.1h-1.37c-.31,0-.62-.1-.82-.1V17.8a6.33,6.33,0,0,0-.82-3.5,2.87,2.87,0,0,0-2.46-1.1,4.9,4.9,0,0,0-1.74.3,3.7,3.7,0,0,0-1.54,1,4.43,4.43,0,0,0-1,1.8A9.41,9.41,0,0,0,169,19v8.7c-.19,0-.47.1-.75.1h-1.5c-.28,0-.56-.1-.75-.1V2.8Z" style="fill:#112a82"/><path d="M193,16.4a3.2,3.2,0,0,0-.94-2.7,4.27,4.27,0,0,0-2.72-.8,13.19,13.19,0,0,0-2.06.2,13,13,0,0,0-1.88.5,5.55,5.55,0,0,1-.56-2.6c.75-.2,1.5-.4,2.34-.6a21.67,21.67,0,0,1,2.44-.2,7,7,0,0,1,4.78,1.5c1.13,1,1.59,2.6,1.59,4.8V27.2a15.72,15.72,0,0,1-2.63.5,16.47,16.47,0,0,1-3.19.3,10.85,10.85,0,0,1-2.72-.3,4.53,4.53,0,0,1-2.06-1,3.86,3.86,0,0,1-1.31-1.7,6.53,6.53,0,0,1-.47-2.5,5.13,5.13,0,0,1,.56-2.5,5.38,5.38,0,0,1,1.5-1.8,7.46,7.46,0,0,1,2.16-1.1,10.94,10.94,0,0,1,2.53-.3H192c.47,0,.75.1,1,.1v-.5Zm0,3c-.3,0-.8-.1-1.3-.1s-.9-.1-1.3-.1a5.22,5.22,0,0,0-3.1.8,2.71,2.71,0,0,0-1.1,2.3,2.54,2.54,0,0,0,.4,1.6,2.58,2.58,0,0,0,.9.9,5.64,5.64,0,0,0,1.2.4c.4,0,.9.1,1.3.1a9.15,9.15,0,0,0,1.6-.1,5.77,5.77,0,0,0,1.4-.3V19.4Z" style="fill:#112a82"/><path d="M200.4,9.8a2.42,2.42,0,0,0,.7,1h2c.2,0,.39.1.69.1.1.29.1.79.2,1.28a7.47,7.47,0,0,1,.1,1.38,4.36,4.36,0,0,1,.79-1.08,3.93,3.93,0,0,1,1.18-1,6.77,6.77,0,0,1,1.47-.69,5.72,5.72,0,0,1,1.87-.29,5.12,5.12,0,0,1,4.23,1.67A7.71,7.71,0,0,1,215,17.09V27.7c-.2,0-.49.1-.79.1h-1.38c-.31,0-.62-.1-.83-.1V17.8a6.35,6.35,0,0,0-.73-3.5,2.86,2.86,0,0,0-2.39-1.1,6.09,6.09,0,0,0-1.87.3,5.13,5.13,0,0,0-1.56,1,5.19,5.19,0,0,0-1,1.8A6.75,6.75,0,0,0,204,19v8.7c-.19,0-.47.1-.75.1h-1.5c-.28,0-.56-.1-.75-.1V9.8Z" style="fill:#112a82"/><path d="M227.7,25.8a6.3,6.3,0,0,1,4.3,1.3,4.16,4.16,0,0,1,1.3,3.3,4,4,0,0,1-.7,2.4,8.55,8.55,0,0,1-1.9,1.9,11,11,0,0,1-2.9,1.2,13.7,13.7,0,0,1-3.6.4,10.32,10.32,0,0,1-5.2-1.1,3.6,3.6,0,0,1-1.8-3.4,4,4,0,0,1,.7-2.4,5.19,5.19,0,0,1,1.9-1.7,3.84,3.84,0,0,1-1.1-1.1,2.73,2.73,0,0,1-.4-1.6,4.65,4.65,0,0,1,.5-2.1,7.52,7.52,0,0,1,1.5-1.6,7,7,0,0,1-1.8-2,6,6,0,0,1-.7-2.7,6.87,6.87,0,0,1,.5-2.4,6.41,6.41,0,0,1,1.3-1.9,6.75,6.75,0,0,1,2.2-1.3,9.43,9.43,0,0,1,3-.5,7.66,7.66,0,0,1,2.7.4,10.34,10.34,0,0,1,2.1,1.1,5,5,0,0,1,1.8-.9,10.07,10.07,0,0,1,2.5-.3,6.15,6.15,0,0,1,.1,1.4V13c0,.3-.1.5-.1.8h-3l.6,1.2a6.8,6.8,0,0,1,.2,1.5,7,7,0,0,1-.5,2.5,5.22,5.22,0,0,1-1.4,1.9,6.6,6.6,0,0,1-2.2,1.2,8.25,8.25,0,0,1-2.8.4,10.07,10.07,0,0,1-2.5-.3,3.24,3.24,0,0,0-.9.8,2.08,2.08,0,0,0-.5,1.2,1.28,1.28,0,0,0,.4,1,2.7,2.7,0,0,0,1.9.5Zm-4.3,2a2.61,2.61,0,0,0-2.2.8,2.88,2.88,0,0,0-.7,2,2.13,2.13,0,0,0,.3,1.2,1.78,1.78,0,0,0,.8.7,5,5,0,0,0,1.3.4,8.08,8.08,0,0,0,1.6.1,8.19,8.19,0,0,0,4.2-.9,2.55,2.55,0,0,0,1.5-2.2,1.75,1.75,0,0,0-.6-1.5,4,4,0,0,0-2.3-.6Zm1.5-8.2a3.34,3.34,0,0,0,2.7-1,3.74,3.74,0,0,0,.9-2.6,3.74,3.74,0,0,0-.9-2.6,3.34,3.34,0,0,0-2.7-1,3,3,0,0,0-2.6,1,3.69,3.69,0,0,0-.8,2.6,4.46,4.46,0,0,0,.8,2.6A3.3,3.3,0,0,0,224.9,19.6Z" style="fill:#112a82"/><path d="M238,19.7a5.43,5.43,0,0,0,1.42,4.1,5.77,5.77,0,0,0,4.17,1.3,13.73,13.73,0,0,0,4.58-.8,3.34,3.34,0,0,1,.41,1.2,6.65,6.65,0,0,1,.2,1.4,14.11,14.11,0,0,1-2.44.7,13.66,13.66,0,0,1-2.95.2,12,12,0,0,1-4.07-.6,6.54,6.54,0,0,1-2.75-1.8,8.51,8.51,0,0,1-1.63-2.8,13.24,13.24,0,0,1-.51-3.5,12.66,12.66,0,0,1,.51-3.5,7.25,7.25,0,0,1,1.53-2.9A6.77,6.77,0,0,1,239,10.8a8.24,8.24,0,0,1,3.66-.7,7.69,7.69,0,0,1,3.15.6,6.06,6.06,0,0,1,2.24,1.6,6.74,6.74,0,0,1,1.42,2.5,10.43,10.43,0,0,1,.51,3.1v1a2.72,2.72,0,0,1-.1.9H238Zm9-2.8a11,11,0,0,0-.2-1.8,5.23,5.23,0,0,0-.7-1.5,2.94,2.94,0,0,0-1.2-1,3.42,3.42,0,0,0-1.8-.4,3.85,3.85,0,0,0-3.1,1.2,5.82,5.82,0,0,0-1.3,3.4H247Z" style="fill:#112a82"/><polygon points="38 19.96 38 -0.25 9.15 16.42 8.94 22.15 33 7.88 33 17.04 38 19.96" style="fill:url(#a)"/><polygon points="5 30.4 33 13.8 33 7.87 10 21.43 10 14.07 5 11.23 5 30.4" style="fill:url(#b)"/><polygon points="0.6 3.1 43 27.6 43 3.1 38 0.1 38 19.5 4.3 0.1 0.6 3.1" style="fill:url(#c)"/><polygon points="0 2.23 0 28.29 5 31.27 5 10.85 39.79 31.27 45.11 28.29 0 2.23" style="fill:url(#d)"/></svg>