<svg xmlns="http://www.w3.org/2000/svg" viewBox="0 0 99 113"><title>poweredby-full</title><polygon points="49.5 0 0 38 20.37 53.64 26.56 48.89 12.37 38 49.5 9.5 86.62 38 49.5 66.5 37.12 57 30.94 61.75 49.5 76 99 38 49.5 0" style="fill:#b5b7b9"/><polygon points="17.36 41 50 15.75 50 9 13 37.63 17.36 41" style="fill:#231f20"/><polygon points="55 21.64 55 36.36 49 41 49 17 55 21.64" style="fill:#231f20"/><polygon points="10.45 76 12.29 74.63 50 46.61 50 40 12.29 68.03 12.29 53.21 6 48.54 6 72.69 10.45 76" style="fill:#231f20"/><path d="M55.13,70.25,49,75v38l6.13-4.75,36.75-28.5L98,75V37Zm0,6.72,36.75-28.5V73l-36.75,28.5Z" style="fill:#231f20"/><polygon points="86 68.36 86 53.64 92 49 92 73 86 68.36" style="fill:#747678"/><polygon points="81.64 41 49 15.75 49 9 86 37.63 81.64 41" style="fill:#747678"/><polygon points="44 36.36 44 21.64 50 17 50 41 44 36.36" style="fill:#747678"/><polygon points="72 65.08 81.68 72 86 68.92 76.32 62 72 65.08" style="fill:#747678"/><polygon points="66 53.48 49 40 49 47.04 61.56 57 66 53.48" style="fill:#747678"/><polygon points="0 43.72 0 75 6.13 79.75 42.88 108.25 49 113 49 75 42.88 70.25 30.63 60.75 26.29 64.11 42.88 76.97 42.88 101.53 6.13 73.03 6.13 48.47 15.84 56 20.17 52.64 6.13 41.75 0 37 0 43.72" style="fill:#747678"/><polygon points="12.17 68 43 91.57 43 101 6 72.72 12.17 68" style="fill:#b5b7b9"/><polygon points="43.83 36 13 59.57 13 69 50 40.72 43.83 36" style="fill:#b5b7b9"/><polygon points="82.31 56 76 60.64 86 68 86 58.72 82.31 56" style="fill:#b5b7b9"/><polygon points="85.83 68 55 91.57 55 101 92 72.72 85.83 68" style="fill:#b5b7b9"/><polygon points="72 49.14 55.2 36 49 40.86 65.8 54 72 49.14" style="fill:#b5b7b9"/></svg>