<svg xmlns="http://www.w3.org/2000/svg" viewBox="0 0 16.1 15.62"><title>social-github</title><path d="M8,0A8,8,0,0,0,0,8a8.08,8.08,0,0,0,5.5,7.6c.4.1.5-.2.5-.4V13.8c-2.2.5-2.7-1-2.7-1a2.69,2.69,0,0,0-.9-1.2c-.7-.5.1-.5.1-.5a1.74,1.74,0,0,1,1.2.8,1.63,1.63,0,0,0,2.3.7,2.26,2.26,0,0,1,.5-1.1c-1.8-.2-3.6-.9-3.6-4a2.86,2.86,0,0,1,.8-2.1,2.49,2.49,0,0,1,.1-2.1s.7-.2,2.2.8a6.45,6.45,0,0,1,2-.3,6.45,6.45,0,0,1,2,.3c1.5-1,2.2-.8,2.2-.8a3,3,0,0,1,.1,2.1,3.23,3.23,0,0,1,.8,2.1c0,3.1-1.9,3.7-3.7,3.9A2.58,2.58,0,0,1,10,13v2.2c0,.2.1.5.6.4A8.08,8.08,0,0,0,16.1,8,8.18,8.18,0,0,0,8,0Z"/></svg>