<svg xmlns="http://www.w3.org/2000/svg" viewBox="0 0 16 13"><title>social-twitter</title><path d="M14.1,2A2.83,2.83,0,0,0,15.5.2a6.56,6.56,0,0,1-2.1.8A3.49,3.49,0,0,0,11,0,3.31,3.31,0,0,0,7.8,3.3a1.48,1.48,0,0,0,.1.7A9.2,9.2,0,0,1,1.1.6,3.06,3.06,0,0,0,.7,2.3,3.28,3.28,0,0,0,2.2,5,4.19,4.19,0,0,1,.7,4.6,3.23,3.23,0,0,0,3.3,7.8a2.77,2.77,0,0,1-.9.1,1.27,1.27,0,0,1-.6-.1,3.24,3.24,0,0,0,3.1,2.3A6.36,6.36,0,0,1,.8,11.5H0A9.76,9.76,0,0,0,5,13a9.26,9.26,0,0,0,9.3-9.3V3.3A5.81,5.81,0,0,0,16,1.5,5.92,5.92,0,0,1,14.1,2Z"/></svg>