<svg xmlns="http://www.w3.org/2000/svg" xmlns:xlink="http://www.w3.org/1999/xlink" viewBox="0 0 250 115"><defs><filter id="a" x="-26.9" y="-50" width="153.8" height="240" name="filter-4"><feOffset result="shadowOffsetOuter1" dy="10" in="SourceAlpha"/><feGaussianBlur result="shadowBlurOuter1" stdDeviation="10" in="shadowOffsetOuter1"/><feColorMatrix values="0 0 0 0 0.11 0 0 0 0 0.14 0 0 0 0 0.22 0 0 0 0.23 0" in="shadowBlurOuter1"/></filter></defs><title>userfeeds-decentralized</title><path d="M43.65,46.62a.75.75,0,0,0-1-.27L27.79,55.08q.46.6.86,1.24l14.74-8.67A.75.75,0,0,0,43.65,46.62Z" style="fill:#263fff"/><path d="M15.5,49c.34,0,.67,0,1,.05V38.75H15V49Z" style="fill:#263fff"/><path d="M45.74,87.38,25.85,76a15.56,15.56,0,0,1-1.25,1L45.11,88.75Q45.39,88.05,45.74,87.38Z" style="fill:#263fff"/><path d="M80,35c0,.17,0,.33,0,.5,0,.34,0,.67-.05,1h20.39V35Z" style="fill:#263fff"/><circle cx="59.5" cy="94.5" r="15.5" style="fill:#fc0035;fill-opacity:0.10000000149011612"/><path d="M64.55,99.44H54.45a.56.56,0,0,1-.56-.56V97.83A1.91,1.91,0,0,1,55.19,96l2.2-.73a.78.78,0,0,0,.54-.75v-.47a4.18,4.18,0,0,1-1.35-2.94,2.92,2.92,0,1,1,5.84,0,4.18,4.18,0,0,1-1.35,2.94v.47a.78.78,0,0,0,.54.74l2.2.73a1.91,1.91,0,0,1,1.31,1.81v1A.56.56,0,0,1,64.55,99.44ZM55,98.32h9v-.49a.78.78,0,0,0-.54-.75h0l-2.2-.73a1.91,1.91,0,0,1-1.31-1.81V93.9a.55.55,0,0,1,.22-.55,3,3,0,0,0,1.13-2.22,1.8,1.8,0,1,0-3.59,0,3,3,0,0,0,1.13,2.22.56.56,0,0,1,.22.58v.61a1.91,1.91,0,0,1-1.31,1.81l-2.2.73a.78.78,0,0,0-.54.74Z" style="fill:#fc0035"/><circle cx="15.5" cy="64.5" r="15.5" style="fill:#263fff;fill-opacity:0.10000000149011612"/><path d="M20.55,69.53H10.45a.65.65,0,0,1-.65-.65V67.83a2,2,0,0,1,1.37-1.9l2.2-.73a.7.7,0,0,0,.48-.66v-.43a4.27,4.27,0,0,1-1.35-3,3,3,0,1,1,6,0,4.27,4.27,0,0,1-1.35,3v.43a.69.69,0,0,0,.48.66l2.2.73h0a2,2,0,0,1,1.37,1.9v1A.65.65,0,0,1,20.55,69.53Zm-9.46-1.3H19.9v-.4a.7.7,0,0,0-.48-.66h0l-2.2-.73a2,2,0,0,1-1.37-1.89v-.63a.64.64,0,0,1,.26-.63,2.91,2.91,0,0,0,1.09-2.15,1.71,1.71,0,1,0-3.42,0,2.91,2.91,0,0,0,1.09,2.15.65.65,0,0,1,.26.66v.6a2,2,0,0,1-1.37,1.9l-2.2.73a.69.69,0,0,0-.48.66Z" style="fill:#263fff"/><circle cx="15.5" cy="26.5" r="12.5" style="fill:#fc0035;fill-opacity:0.10000000149011612"/><path d="M19.58,30.48H11.42A.45.45,0,0,1,11,30v-.85A1.53,1.53,0,0,1,12,27.73l1.77-.59a.63.63,0,0,0,.44-.6v-.38a3.37,3.37,0,0,1-1.09-2.37,2.35,2.35,0,0,1,4.71,0,3.37,3.37,0,0,1-1.09,2.37v.38a.64.64,0,0,0,.44.6l1.77.59A1.53,1.53,0,0,1,20,29.19V30A.45.45,0,0,1,19.58,30.48Zm-7.7-.9h7.25v-.4a.64.64,0,0,0-.44-.61h0L16.92,28a1.53,1.53,0,0,1-1.05-1.46V26a.44.44,0,0,1,.18-.44A2.43,2.43,0,0,0,17,23.78a1.45,1.45,0,0,0-2.9,0A2.43,2.43,0,0,0,15,25.58a.45.45,0,0,1,.18.47v.49A1.53,1.53,0,0,1,14.08,28l-1.77.59a.64.64,0,0,0-.44.6Z" style="fill:#fc0035"/><circle cx="59.5" cy="35.5" r="20.5" style="fill:#263fff;fill-opacity:0.10000000149011612"/><path d="M66.18,42H52.82a.75.75,0,0,1-.75-.75V39.9a2.53,2.53,0,0,1,1.73-2.4l2.91-1a1,1,0,0,0,.71-1v-.62A5.53,5.53,0,0,1,55.63,31a3.87,3.87,0,0,1,7.74,0,5.53,5.53,0,0,1-1.78,3.89v.62a1,1,0,0,0,.71,1l2.91,1a2.53,2.53,0,0,1,1.73,2.41v1.39A.75.75,0,0,1,66.18,42Zm-12.62-1.5H65.43V39.9a1,1,0,0,0-.71-1h0l-2.91-1a2.53,2.53,0,0,1-1.73-2.4v-.85a.74.74,0,0,1,.3-.73A4,4,0,0,0,61.87,31a2.37,2.37,0,0,0-4.74,0A4,4,0,0,0,58.62,34a.75.75,0,0,1,.3.78v.8A2.53,2.53,0,0,1,57.18,38l-2.91,1a1,1,0,0,0-.71,1Z" style="fill:#263fff"/><g style="filter:url(#a)"><rect x="113.78" y="51.3" width="102.44" height="39.4" rx="4.73" ry="4.73"/></g><rect x="113.78" y="51.3" width="102.44" height="39.4" rx="4.73" ry="4.73" style="fill:#fff"/><rect x="119.3" y="60.76" width="49.64" height="4.73" rx="0.79" ry="0.79" style="fill:#263fff;fill-opacity:0.30000001192092896"/><rect x="119.3" y="68.64" width="79.59" height="4.73" rx="0.79" ry="0.79" style="fill:#263fff;fill-opacity:0.30000001192092896"/><rect x="119.3" y="76.52" width="70.13" height="4.73" rx="0.79" ry="0.79" style="fill:#263fff;fill-opacity:0.30000001192092896"/><g style="filter:url(#a)"><rect x="100" y="10" width="130" height="50" rx="6" ry="6"/></g><rect x="100" y="10" width="130" height="50" rx="6" ry="6" style="fill:#fff"/><rect x="107" y="22" width="63" height="6" rx="1" ry="1" style="fill:#263fff;fill-opacity:0.30000001192092896"/><rect x="107" y="32" width="101" height="6" rx="1" ry="1" style="fill:#263fff;fill-opacity:0.30000001192092896"/><rect x="107" y="42" width="89" height="6" rx="1" ry="1" style="fill:#263fff;fill-opacity:0.30000001192092896"/></svg>