<svg xmlns="http://www.w3.org/2000/svg" viewBox="0 0 158 112"><title>userfeeds-voting</title><path d="M125.65,32.63a.75.75,0,0,0-1-.28L36.52,83.11q.41.63.75,1.3l88.1-50.76A.75.75,0,0,0,125.65,32.63Z" style="fill:#263fff"/><path d="M123,23.5c0-.35,0-.7.05-1L46,23c0,.5,0,1-.06,1.5L123,23.95C123,23.8,123,23.65,123,23.5Z" style="fill:#263fff"/><path d="M23.5,76c.42,0,.84,0,1.25.06V45.93c-.5,0-1,.06-1.5.07V76Z" style="fill:#263fff"/><path d="M98.66,79.82,41,37.29c-.31.39-.63.78-1,1.15L97.86,81.09C98.12,80.66,98.38,80.23,98.66,79.82Z" style="fill:#263fff"/><circle cx="140.5" cy="23.5" r="17.5" style="fill:#fc0035;fill-opacity:0.10000000149011612"/><path d="M146,25.31l-2.77-.92a.88.88,0,0,1-.6-.84V23a5.34,5.34,0,0,0,1.7-3.74,3.78,3.78,0,0,0-7.56,0,5.34,5.34,0,0,0,1.7,3.74v.55a.88.88,0,0,1-.6.84l-2.77.92a2.51,2.51,0,0,0-1.71,2.38V29a.81.81,0,0,0,.81.81h12.72a.81.81,0,0,0,.81-.81V27.69A2.5,2.5,0,0,0,146,25.31Zm-7.61-6a2.16,2.16,0,0,1,4.31,0c0,1.28-1.07,3-2.16,3S138.34,20.54,138.34,19.26ZM146,28.2H135v-.51a.88.88,0,0,1,.6-.84l2.77-.92A2.5,2.5,0,0,0,140,23.84a2.35,2.35,0,0,0,1,0,2.5,2.5,0,0,0,1.69,2.09l2.77.92a.88.88,0,0,1,.6.84Z" style="fill:#fc0035"/><circle cx="115.5" cy="91.5" r="20.5" style="fill:#fc0035;fill-opacity:0.10000000149011612"/><path d="M121.2,93.5l-2.91-1a1,1,0,0,1-.71-1v-.62A5.5,5.5,0,0,0,119.37,87a3.87,3.87,0,1,0-7.74,0,5.5,5.5,0,0,0,1.78,3.89v.62a1,1,0,0,1-.71,1l-2.91,1a2.53,2.53,0,0,0-1.73,2.4v1.39a.75.75,0,0,0,.75.75h13.37a.75.75,0,0,0,.75-.75V95.91A2.53,2.53,0,0,0,121.2,93.5ZM113.13,87a2.37,2.37,0,1,1,4.74,0c0,1.39-1.17,3.26-2.37,3.26S113.13,88.44,113.13,87Zm8.3,9.5H109.57v-.64a1,1,0,0,1,.71-1l2.91-1a2.53,2.53,0,0,0,1.72-2.23,2.43,2.43,0,0,0,1.2,0A2.52,2.52,0,0,0,117.82,94l2.91,1a1,1,0,0,1,.71,1Z" style="fill:#fc0035"/><circle cx="23" cy="23" r="23" style="fill:#263fff;fill-opacity:0.10000000149011612"/><path d="M29.63,25.56l-3.33-1.11a1.29,1.29,0,0,1-.88-1.22v-.75a6.16,6.16,0,0,0,2-4.4,4.32,4.32,0,1,0-8.63,0,6.16,6.16,0,0,0,2,4.4v.75A1.29,1.29,0,0,1,20,24.45l-3.32,1.11a2.78,2.78,0,0,0-1.91,2.65v1.59a.75.75,0,0,0,.75.75H30.79a.75.75,0,0,0,.75-.75V28.2A2.78,2.78,0,0,0,29.63,25.56Zm-9.3-7.48a2.82,2.82,0,1,1,5.63,0c0,1.67-1.37,3.83-2.82,3.83S20.33,19.75,20.33,18.07ZM30,29H16.26V28.2A1.29,1.29,0,0,1,17.14,27l3.32-1.11a2.78,2.78,0,0,0,1.9-2.58,2.84,2.84,0,0,0,1.57,0,2.78,2.78,0,0,0,1.9,2.57L29.16,27A1.29,1.29,0,0,1,30,28.2Z" style="fill:#263fff"/><circle cx="23.5" cy="91.5" r="15.5" style="fill:#263fff;fill-opacity:0.10000000149011612"/><path d="M27.81,93l-2.2-.73a.78.78,0,0,1-.54-.74v-.47a4.14,4.14,0,0,0,1.35-2.93,2.92,2.92,0,1,0-5.84,0,4.14,4.14,0,0,0,1.35,2.93v.47a.79.79,0,0,1-.54.75l-2.2.73a1.91,1.91,0,0,0-1.31,1.81v1.05a.56.56,0,0,0,.56.56H28.55a.56.56,0,0,0,.56-.56v-1A1.91,1.91,0,0,0,27.81,93ZM21.7,88.13a1.8,1.8,0,1,1,3.59,0c0,1.06-.89,2.47-1.8,2.47S21.7,89.19,21.7,88.13ZM28,95.32H19v-.49a.78.78,0,0,1,.54-.75l2.2-.73A1.9,1.9,0,0,0,23,91.66a1.6,1.6,0,0,0,.93,0,1.9,1.9,0,0,0,1.29,1.69l2.2.73a.78.78,0,0,1,.54.75Z" style="fill:#263fff"/></svg>