<svg xmlns="http://www.w3.org/2000/svg" viewBox="0 0 164 123"><title>userfeeds-reputation</title><path d="M58.87,43.17l-32-20a.75.75,0,1,0-.79,1.27L58,44.4Q58.43,43.78,58.87,43.17Z" style="fill:#263fff"/><path d="M59.06,79.08,39.13,90.35a.75.75,0,0,0,.74,1.31L60,80.27Q59.52,79.69,59.06,79.08Z" style="fill:#263fff"/><path d="M127.67,90.35,107.29,78.6q-.44.61-.92,1.2l20.54,11.85a.75.75,0,1,0,.75-1.3Z" style="fill:#263fff"/><path d="M109.94,47.75a.75.75,0,0,1-.37-1.4l23-13a.75.75,0,1,1,.74,1.31l-23,13A.74.74,0,0,1,109.94,47.75Z" style="fill:#263fff"/><circle cx="27.5" cy="100.5" r="15.5" style="fill:#263fff;fill-opacity:0.10000000149011612"/><path d="M32.55,105.44H22.45a.56.56,0,0,1-.56-.56v-1.05A1.91,1.91,0,0,1,23.19,102l2.2-.73a.78.78,0,0,0,.54-.75v-.47a4.18,4.18,0,0,1-1.35-2.94,2.92,2.92,0,1,1,5.84,0,4.18,4.18,0,0,1-1.35,2.94v.47a.78.78,0,0,0,.54.74l2.2.73a1.91,1.91,0,0,1,1.31,1.81v1A.56.56,0,0,1,32.55,105.44ZM23,104.32h9v-.49a.78.78,0,0,0-.54-.75h0l-2.2-.73a1.91,1.91,0,0,1-1.31-1.81V99.9a.55.55,0,0,1,.22-.55,3,3,0,0,0,1.13-2.22,1.8,1.8,0,1,0-3.59,0,3,3,0,0,0,1.13,2.22.56.56,0,0,1,.22.58v.61a1.91,1.91,0,0,1-1.31,1.81l-2.2.73a.78.78,0,0,0-.54.74Z" style="fill:#263fff"/><circle cx="146.5" cy="25.5" r="15.5" style="fill:#263fff;fill-opacity:0.10000000149011612"/><path d="M151.45,30.1H141.34a.65.65,0,0,1-.65-.65V28.4a2,2,0,0,1,1.37-1.9l2.2-.73a.7.7,0,0,0,.48-.66v-.43a4.28,4.28,0,0,1-1.35-3,3,3,0,0,1,6,0,4.28,4.28,0,0,1-1.35,3v.43a.7.7,0,0,0,.48.66l2.2.73a2,2,0,0,1,1.37,1.9v1A.65.65,0,0,1,151.45,30.1ZM142,28.8h8.81v-.4a.69.69,0,0,0-.48-.66h0l-2.2-.73a2,2,0,0,1-1.37-1.89v-.63a.65.65,0,0,1,.26-.63,2.91,2.91,0,0,0,1.09-2.15,1.71,1.71,0,1,0-3.42,0,2.91,2.91,0,0,0,1.09,2.15.65.65,0,0,1,.26.66v.6a2,2,0,0,1-1.37,1.9l-2.2.73a.7.7,0,0,0-.48.66Z" style="fill:#263fff"/><circle cx="143.5" cy="102.5" r="20.5" style="fill:#263fff;fill-opacity:0.10000000149011612"/><path d="M150.18,109H136.82a.75.75,0,0,1-.75-.75v-1.39a2.53,2.53,0,0,1,1.73-2.4l2.91-1a1,1,0,0,0,.71-1v-.62A5.53,5.53,0,0,1,139.63,98a3.87,3.87,0,1,1,7.74,0,5.53,5.53,0,0,1-1.78,3.89v.62a1,1,0,0,0,.71,1l2.91,1h0a2.53,2.53,0,0,1,1.73,2.41v1.39A.75.75,0,0,1,150.18,109Zm-12.62-1.5h11.87v-.64a1,1,0,0,0-.71-1l-2.91-1a2.53,2.53,0,0,1-1.73-2.4v-.85a.74.74,0,0,1,.3-.73A4,4,0,0,0,145.87,98a2.37,2.37,0,1,0-4.74,0,4,4,0,0,0,1.49,2.93.75.75,0,0,1,.3.78v.8a2.53,2.53,0,0,1-1.73,2.41l-2.91,1a1,1,0,0,0-.71,1Z" style="fill:#263fff"/><circle cx="14.5" cy="14.5" r="14.5" style="fill:#263fff;fill-opacity:0.10000000149011612"/><path d="M20.84,20.45H9.38a.61.61,0,0,1-.61-.61V18.65a2.13,2.13,0,0,1,1.46-2l2.49-.83a.92.92,0,0,0,.63-.87v-.55a4.7,4.7,0,0,1-1.53-3.32,3.28,3.28,0,0,1,6.56,0,4.7,4.7,0,0,1-1.53,3.32v.55a.92.92,0,0,0,.63.87l2.49.83a2.13,2.13,0,0,1,1.46,2v1.19A.61.61,0,0,1,20.84,20.45ZM10,19.23H20.23v-.58a.92.92,0,0,0-.63-.87h0l-2.49-.83a2.13,2.13,0,0,1-1.46-2v-.73a.6.6,0,0,1,.24-.6,3.44,3.44,0,0,0,1.29-2.54,2.07,2.07,0,0,0-4.13,0,3.44,3.44,0,0,0,1.29,2.54.61.61,0,0,1,.24.63v.69a2.13,2.13,0,0,1-1.46,2l-2.49.83a.92.92,0,0,0-.63.87Z" style="fill:#263fff"/><circle cx="83" cy="61" r="30" style="fill:#fc0035;fill-opacity:0.10000000149011612"/><circle cx="79.5" cy="61.5" r="1.5" style="fill:#fc0035"/><circle cx="86.5" cy="61.5" r="1.5" style="fill:#fc0035"/><path d="M83,73c-8.21,0-11.42-2.08-11.55-2.17l-.45-.3V61a12,12,0,0,1,24,0v9.54l-.45.3C94.42,70.92,91.21,73,83,73ZM73,69.4c1.07.49,4.13,1.6,10,1.6s8.92-1.11,10-1.6V61a10,10,0,0,0-20,0ZM94,70h0Z" style="fill:#fc0035"/><path d="M83,70a9,9,0,0,1-8.31-12.47l.23-.55.59-.06a15,15,0,0,0,9.07-4.3l.42-.42.57.17A9,9,0,0,1,83,70ZM76.34,58.84A7,7,0,1,0,90,61a7,7,0,0,0-4.46-6.52A17,17,0,0,1,76.34,58.84Z" style="fill:#fc0035"/></svg>