<svg xmlns="http://www.w3.org/2000/svg" xmlns:xlink="http://www.w3.org/1999/xlink" viewBox="0 0 196 140"><defs><filter id="a" x="-26.9" y="-50" width="153.8" height="240" name="filter-4"><feOffset result="shadowOffsetOuter1" dy="10" in="SourceAlpha"/><feGaussianBlur result="shadowBlurOuter1" stdDeviation="10" in="shadowOffsetOuter1"/><feColorMatrix values="0 0 0 0 0.11 0 0 0 0 0.14 0 0 0 0 0.22 0 0 0 0.23 0" in="shadowBlurOuter1"/></filter></defs><title>userfeeds-blockchain</title><path d="M59.84,45.1,37.94,31.24c-.26.43-.54.84-.83,1.25L59,46.37a.75.75,0,1,0,.8-1.27Z" style="fill:#263fff"/><path d="M126.74,50a.75.75,0,0,1-.39-1.39L155,31.36a.75.75,0,1,1,.78,1.28L127.13,49.93A.75.75,0,0,1,126.74,50Z" style="fill:#263fff"/><path d="M30,106.06a.75.75,0,0,1-.37-1.4L53,91.35a.75.75,0,0,1,.74,1.3L30.37,106A.75.75,0,0,1,30,106.06Z" style="fill:#263fff"/><path d="M159.67,108.43a.74.74,0,0,1-.37-.1L135.63,94.65a.75.75,0,1,1,.75-1.3L160,107a.75.75,0,0,1-.38,1.4Z" style="fill:#263fff"/><circle cx="17.5" cy="114.5" r="15.5" style="fill:#fc0035;fill-opacity:0.10000000149011612"/><path d="M21.81,116l-2.2-.73a.78.78,0,0,1-.54-.74v-.47a4.14,4.14,0,0,0,1.35-2.93,2.92,2.92,0,1,0-5.84,0,4.14,4.14,0,0,0,1.35,2.93v.47a.79.79,0,0,1-.54.75l-2.2.73a1.91,1.91,0,0,0-1.31,1.81v1.05a.56.56,0,0,0,.56.56H22.55a.56.56,0,0,0,.56-.56v-1A1.91,1.91,0,0,0,21.81,116Zm-6.11-4.89a1.8,1.8,0,1,1,3.59,0c0,1.06-.89,2.47-1.8,2.47S15.7,112.19,15.7,111.13ZM22,118.32H13v-.49a.78.78,0,0,1,.54-.75l2.2-.73a1.9,1.9,0,0,0,1.29-1.7,1.6,1.6,0,0,0,.93,0,1.9,1.9,0,0,0,1.29,1.69l2.2.73a.78.78,0,0,1,.54.75Z" style="fill:#fc0035"/><circle cx="168.5" cy="23.5" r="15.5" style="fill:#263fff;fill-opacity:0.10000000149011612"/><path d="M172.84,24.93l-2.2-.73a.7.7,0,0,1-.48-.66V23.1a4.25,4.25,0,0,0,1.35-3,3,3,0,0,0-6,0,4.25,4.25,0,0,0,1.35,3v.44a.7.7,0,0,1-.48.66l-2.2.73a2,2,0,0,0-1.37,1.9v1a.65.65,0,0,0,.65.65h10.11a.65.65,0,0,0,.65-.65v-1A2,2,0,0,0,172.84,24.93Zm-6-4.8a1.71,1.71,0,1,1,3.42,0c0,1-.84,2.38-1.71,2.38S166.79,21.15,166.79,20.13Zm6.11,7.1H164.1v-.4a.7.7,0,0,1,.48-.66l2.2-.73a2,2,0,0,0,1.33-1.68,1.36,1.36,0,0,0,.79,0,2,2,0,0,0,1.33,1.68l2.2.73a.7.7,0,0,1,.48.66Z" style="fill:#263fff"/><circle cx="175.5" cy="119.5" r="20.5" style="fill:#fc0035;fill-opacity:0.10000000149011612"/><path d="M181.2,121.5l-2.91-1a1,1,0,0,1-.71-1v-.62a5.5,5.5,0,0,0,1.78-3.89,3.87,3.87,0,1,0-7.74,0,5.5,5.5,0,0,0,1.78,3.89v.62a1,1,0,0,1-.71,1l-2.91,1a2.53,2.53,0,0,0-1.73,2.4v1.39a.75.75,0,0,0,.75.75h13.37a.75.75,0,0,0,.75-.75v-1.39A2.53,2.53,0,0,0,181.2,121.5ZM173.13,115a2.37,2.37,0,1,1,4.74,0c0,1.39-1.17,3.26-2.37,3.26S173.13,116.44,173.13,115Zm8.3,9.5H169.57v-.64a1,1,0,0,1,.71-1l2.91-1a2.53,2.53,0,0,0,1.72-2.23,2.43,2.43,0,0,0,1.2,0,2.52,2.52,0,0,0,1.72,2.22l2.91,1a1,1,0,0,1,.71,1Z" style="fill:#fc0035"/><circle cx="20.5" cy="20.5" r="20.5" style="fill:#33f;fill-opacity:0.10000000149011612"/><path d="M26.2,22.5l-2.91-1a1,1,0,0,1-.71-1v-.62A5.5,5.5,0,0,0,24.37,16a3.87,3.87,0,0,0-7.74,0,5.5,5.5,0,0,0,1.78,3.89v.62a1,1,0,0,1-.71,1l-2.91,1a2.53,2.53,0,0,0-1.73,2.4v1.39a.75.75,0,0,0,.75.75H27.18a.75.75,0,0,0,.75-.75V24.91A2.53,2.53,0,0,0,26.2,22.5ZM18.13,16a2.37,2.37,0,0,1,4.74,0c0,1.39-1.17,3.26-2.37,3.26S18.13,17.44,18.13,16Zm8.3,9.5H14.57V24.9a1,1,0,0,1,.71-1l2.91-1a2.52,2.52,0,0,0,1.72-2.23,2.43,2.43,0,0,0,1.2,0A2.52,2.52,0,0,0,22.82,23l2.91,1a1,1,0,0,1,.71,1Z" style="fill:#263fff"/><g style="filter:url(#a)"><rect x="35" y="46" width="130" height="50" rx="6" ry="6"/></g><rect x="35" y="46" width="130" height="50" rx="6" ry="6" style="fill:#fff"/><rect x="42" y="58" width="63" height="6" rx="1" ry="1" style="fill:#263fff;fill-opacity:0.30000001192092896"/><rect x="42" y="68" width="101" height="6" rx="1" ry="1" style="fill:#263fff;fill-opacity:0.30000001192092896"/><rect x="42" y="78" width="89" height="6" rx="1" ry="1" style="fill:#263fff;fill-opacity:0.30000001192092896"/></svg>