<svg xmlns="http://www.w3.org/2000/svg" viewBox="0 0 32 28"><title>whitepaper</title><path d="M31,28H1a1,1,0,0,1-1-1V5A1,1,0,0,1,1,4H4A1,1,0,0,1,4,6H2V26H30V6H28a1,1,0,0,1,0-2h3a1,1,0,0,1,1,1V27A1,1,0,0,1,31,28Z"/><path d="M16,24a1,1,0,0,1-1-1V5a1,1,0,0,1,2,0V23A1,1,0,0,1,16,24Z"/><path d="M16,24a1,1,0,0,1-.62-.21A20.35,20.35,0,0,0,4,20a1,1,0,0,1-1-1V1A1,1,0,0,1,4,0c7.2,0,10.58,2.12,12,3.46C17.4,2.11,20.75,0,28,0a1,1,0,0,1,1,1V19a1,1,0,0,1-1,1,19.28,19.28,0,0,0-11.36,3.77A1,1,0,0,1,16,24ZM5,18a22.32,22.32,0,0,1,11,3.73A21.44,21.44,0,0,1,27,18V2c-8.19.24-10.1,3.43-10.12,3.46A.93.93,0,0,1,16,6a1,1,0,0,1-.87-.5C15.08,5.41,13.07,2.26,5,2Z"/></svg>