<svg xmlns="http://www.w3.org/2000/svg" viewBox="0 0 22 24"><title>world</title><path d="M21.78,10.8l-2,.4A9.05,9.05,0,0,1,20,13a8.93,8.93,0,0,1-.81,3.72,2.34,2.34,0,0,0-2.08-.64c-1.21.34-1.79-.15-2.62-1-.65-.65-1.55-1.55-2.86-1a5,5,0,0,0-3,4.09A7.33,7.33,0,0,0,9,21.78,9,9,0,0,1,6,20.45a3.37,3.37,0,0,0,.45-.57,4.19,4.19,0,0,0,0-4.71,11.25,11.25,0,0,0-.82-1,6.11,6.11,0,0,1-.81-1.06,6.8,6.8,0,0,1,1.12-.63,6.27,6.27,0,0,0,2.28-1.57C9.46,9.2,8,6.62,7.74,6.12A8.73,8.73,0,0,0,6.93,5,8.93,8.93,0,0,1,11,4h.1A5.37,5.37,0,0,0,11,5c0,2.84,3.89,6.36,4.34,6.75l.66.58.66-.58C17.11,11.36,21,7.84,21,5a5,5,0,0,0-5-5,5.09,5.09,0,0,0-4.07,2c-.31,0-.62,0-.93,0A11,11,0,1,0,22,13,11.14,11.14,0,0,0,21.78,10.8ZM16,2a3,3,0,0,1,3,3c0,1.25-1.64,3.28-3,4.63C14.64,8.28,13,6.25,13,5A3,3,0,0,1,16,2ZM2,13A9,9,0,0,1,5.24,6.09,6.16,6.16,0,0,1,6,7.15c.52.87.88,2.08.55,2.51a5.07,5.07,0,0,1-1.58,1c-1.06.52-2.27,1.11-2.27,2.34A4,4,0,0,0,4,15.46a9.63,9.63,0,0,1,.67.83,2.23,2.23,0,0,1,0,2.56,1.59,1.59,0,0,1-.25.29A9,9,0,0,1,2,13Zm9.39,9a4.79,4.79,0,0,1-.73-3.52,3.12,3.12,0,0,1,1.72-2.54,3.1,3.1,0,0,1,.7.6A4.32,4.32,0,0,0,17.57,18a.79.79,0,0,1,.42.31.39.39,0,0,1,0,.29A9,9,0,0,1,11.39,22Z"/></svg>